<svg width="424" height="195" viewBox="0 0 424 195" fill="none" xmlns="http://www.w3.org/2000/svg">
<path d="M31.4336 47C39.6003 49.6667 46.1836 53.5 51.1836 58.5C56.5169 63.3333 59.8503 69.8333 61.1836 78L77.9336 34.25L47.4336 42.5C45.1003 43 42.6003 43.6667 39.9336 44.5C37.4336 45.3333 34.6003 46.1667 31.4336 47ZM150.184 7.24999C154.017 11.5833 156.267 16 156.934 20.5C157.267 25.8333 156.934 29.75 155.934 32.25C154.6 34.75 152.934 34.75 150.934 32.25C144.6 27.0833 133.267 25.4167 116.934 27.25C108.6 28.0833 101.85 28.9167 96.6836 29.75C91.6836 30.5833 88.1836 31.4167 86.1836 32.25C89.1836 32.25 91.7669 33 93.9336 34.5C95.1003 35.1667 96.2669 35.9167 97.4336 36.75C98.6003 37.5833 99.7669 38.4167 100.934 39.25C102.934 41.25 103.517 43.25 102.684 45.25C77.0169 97.25 57.0169 145.333 42.6836 189.5C41.0169 192.667 38.1003 194 33.9336 193.5C29.2669 192.5 25.2669 190.583 21.9336 187.75C18.4336 184.583 17.2669 181.333 18.4336 178C21.7669 170 24.6836 162.833 27.1836 156.5C29.6836 150 31.8503 144.25 33.6836 139.25C35.3503 134.417 36.8503 129.917 38.1836 125.75C39.5169 121.417 40.6003 117.417 41.4336 113.75C42.7669 108.083 43.9336 101.833 44.9336 95C45.9336 87.8333 45.9336 81 44.9336 74.5C43.6003 67.8333 40.2669 62.1667 34.9336 57.5C29.9336 52.6667 23.2669 50.6667 14.9336 51.5C11.4336 52 8.35026 50.4167 5.68359 46.75C4.35026 45.0833 3.35026 43.4167 2.68359 41.75C2.18359 40.0833 1.76693 38.3333 1.43359 36.5C0.933594 32.8333 2.43359 30.1667 5.93359 28.5C15.1003 25.8333 24.1003 23.0833 32.9336 20.25C45.2669 16.9167 56.2669 14 65.9336 11.5C75.7669 8.99999 84.4336 7 91.9336 5.5C99.4336 3.99999 106.267 2.83333 112.434 2C118.6 1.16666 124.184 0.833329 129.184 0.999994C139.517 1.33332 146.517 3.41665 150.184 7.24999ZM199.59 92.5C200.09 91.8333 201.007 91.5833 202.34 91.75C203.84 91.75 205.173 92.0833 206.34 92.75C207.673 93.4167 208.673 94.3333 209.34 95.5C210.173 96.5 210.257 97.5833 209.59 98.75C206.423 104.25 202.757 110.417 198.59 117.25C194.59 123.917 190.257 130.5 185.59 137C181.09 143.5 176.423 149.417 171.59 154.75C166.757 159.917 162.007 163.583 157.34 165.75C154.84 166.917 152.173 167.333 149.34 167C146.673 166.5 144.173 165.583 141.84 164.25C139.673 162.75 137.757 161 136.09 159C134.59 156.833 133.757 154.75 133.59 152.75C133.257 150.083 133.59 146.417 134.59 141.75C135.59 137.083 136.673 132.833 137.84 129C135.84 131.333 133.673 134.083 131.34 137.25C129.173 140.25 126.757 143.5 124.09 147C121.423 150.5 118.59 154 115.59 157.5C112.757 161 109.757 164.25 106.59 167.25C105.09 168.75 102.757 169.333 99.5898 169C96.5898 168.667 93.5898 167.833 90.5898 166.5C87.5898 165 85.0065 163.167 82.8398 161C80.5065 158.667 79.5065 156.25 79.8398 153.75C80.3398 147.417 81.8398 140.667 84.3398 133.5C86.8398 126.333 89.9232 119.417 93.5898 112.75C97.0898 105.917 101.007 99.5833 105.34 93.75C109.84 87.9167 114.257 83.1667 118.59 79.5C121.757 77 124.673 75.5833 127.34 75.25C130.007 74.9167 132.59 75.25 135.09 76.25C137.59 77.0833 140.09 78.4167 142.59 80.25C145.09 81.9167 147.757 83.5833 150.59 85.25C152.423 83.25 154.173 81.1667 155.84 79C157.673 76.6667 159.59 74.4167 161.59 72.25C162.757 70.75 164.59 70.1667 167.09 70.5C169.757 70.8333 172.257 71.75 174.59 73.25C176.923 74.75 178.757 76.5833 180.09 78.75C181.59 80.75 181.757 82.6667 180.59 84.5C174.923 94.1667 170.34 102.75 166.84 110.25C163.507 117.75 161.007 124.083 159.34 129.25C157.84 134.417 157.09 138.333 157.09 141C157.257 143.667 157.923 145 159.09 145C162.423 144.833 167.507 140.333 174.34 131.5C181.173 122.667 189.59 109.667 199.59 92.5ZM138.84 102.25C139.34 101.583 139.59 100.417 139.59 98.75C139.59 97.0833 139.257 95.5833 138.59 94.25C138.09 92.75 137.257 91.8333 136.09 91.5C134.923 91.1667 133.423 92 131.59 94C127.757 97.6667 124.173 102 120.84 107C117.673 112 114.84 116.917 112.34 121.75C110.007 126.583 108.09 131.083 106.59 135.25C105.09 139.25 104.34 142.25 104.34 144.25C106.173 142.75 108.59 140.333 111.59 137C114.757 133.5 118.007 129.667 121.34 125.5C124.673 121.333 127.923 117.167 131.09 113C134.257 108.833 136.84 105.25 138.84 102.25ZM273.787 96.25C276.12 95.9167 278.787 96.5 281.787 98C284.787 99.5 286.954 100.833 288.287 102C287.62 102.667 287.12 103.083 286.787 103.25C286.62 103.25 286.37 103.25 286.037 103.25C285.704 103.083 285.204 102.917 284.537 102.75C284.037 102.583 283.287 102.583 282.287 102.75C279.787 103.25 276.12 104.917 271.287 107.75C266.454 110.417 261.454 113.5 256.287 117C251.12 120.333 246.287 123.667 241.787 127C237.454 130.167 234.62 132.5 233.287 134C234.12 135.333 234.954 136.583 235.787 137.75C236.62 138.917 237.454 140.167 238.287 141.5C240.787 146 241.87 150.5 241.537 155C241.204 159.5 239.787 163.917 237.287 168.25C234.954 172.417 231.787 176.333 227.787 180C223.787 183.667 219.537 186.75 215.037 189.25C212.037 190.917 208.62 192.083 204.787 192.75C201.12 193.583 197.537 193.833 194.037 193.5C190.37 193.333 187.037 192.667 184.037 191.5C180.87 190.333 178.454 188.667 176.787 186.5C174.954 184.167 174.037 181.417 174.037 178.25C173.87 175.083 175.037 171.417 177.537 167.25C181.37 160.917 186.37 155 192.537 149.5C198.537 144 204.704 138.833 211.037 134C208.037 129.667 204.954 125.583 201.787 121.75C198.787 117.75 196.704 113.333 195.537 108.5C194.537 104.167 194.37 99.8333 195.037 95.5C195.537 91 196.704 86.75 198.537 82.75C200.37 78.75 202.704 75.0833 205.537 71.75C208.537 68.25 211.87 65.25 215.537 62.75C217.37 61.5833 219.537 61.0833 222.037 61.25C224.537 61.25 227.037 61.6667 229.537 62.5C232.037 63.3333 234.287 64.3333 236.287 65.5C238.454 66.6667 240.12 67.6667 241.287 68.5C245.62 61.5 249.37 56.3333 252.537 53C255.87 49.5 258.537 46.8333 260.537 45C261.704 44.1667 263.287 44.4167 265.287 45.75C267.287 46.9167 269.12 48.5833 270.787 50.75C272.62 52.75 273.954 54.8333 274.787 57C275.787 59.1667 275.704 60.6667 274.537 61.5C271.87 63.3333 268.704 66.25 265.037 70.25C261.37 74.25 257.954 78.5 254.787 83C251.62 87.5 249.12 91.9167 247.287 96.25C245.62 100.417 245.37 103.833 246.537 106.5C245.704 106.833 244.537 106.75 243.037 106.25C241.704 105.75 240.287 105 238.787 104C237.454 103 236.204 101.75 235.037 100.25C233.87 98.5833 233.037 96.8333 232.537 95C232.204 93.6667 232.204 92.1667 232.537 90.5C232.87 88.6667 233.287 86.9167 233.787 85.25C234.287 83.5833 234.87 82 235.537 80.5C236.204 79 236.704 77.8333 237.037 77C233.87 76.8333 230.87 78.5833 228.037 82.25C225.37 85.75 223.37 90 222.037 95C220.704 100 220.204 105.25 220.537 110.75C220.87 116.083 222.62 120.583 225.787 124.25C228.954 122.25 232.62 119.75 236.787 116.75C241.12 113.75 245.454 110.833 249.787 108C254.12 105 258.37 102.417 262.537 100.25C266.87 98.0833 270.62 96.75 273.787 96.25ZM193.037 178C195.37 177.833 198.12 176.583 201.287 174.25C204.62 171.75 207.62 168.833 210.287 165.5C213.12 162.167 215.287 158.75 216.787 155.25C218.454 151.75 218.787 148.917 217.787 146.75C212.62 151.583 207.704 156.5 203.037 161.5C198.537 166.333 195.204 171.833 193.037 178ZM345.035 22.75C342.535 23.75 339.285 26.4167 335.285 30.75C331.452 35.0833 327.368 40.3333 323.035 46.5C318.702 52.6667 314.285 59.3333 309.785 66.5C305.452 73.5 301.452 80.25 297.785 86.75C294.118 93.25 291.035 99.0833 288.535 104.25C286.202 109.25 284.868 112.75 284.535 114.75C287.035 111.583 289.868 108.083 293.035 104.25C296.202 100.25 299.452 96.3333 302.785 92.5C306.285 88.5 309.702 84.75 313.035 81.25C316.535 77.75 319.785 74.8333 322.785 72.5C323.952 71.5 325.285 70.5833 326.785 69.75C328.452 68.75 330.035 68.6667 331.535 69.5C336.368 71.8333 339.785 74 341.785 76C343.785 78 343.702 80.8333 341.535 84.5C339.535 87.8333 336.618 91.8333 332.785 96.5C329.118 101.167 325.118 105.917 320.785 110.75C316.618 115.417 312.535 119.833 308.535 124C304.702 128.167 301.618 131.417 299.285 133.75C304.618 133.583 309.702 134 314.535 135C319.368 135.833 322.702 137.083 324.535 138.75C325.035 139.417 324.952 140.917 324.285 143.25C323.785 145.583 322.868 147.917 321.535 150.25C320.202 152.417 318.702 154.25 317.035 155.75C315.535 157.083 314.035 157.25 312.535 156.25C310.202 154.583 307.285 153.167 303.785 152C300.452 150.833 296.785 150.167 292.785 150C288.785 149.833 284.702 150.25 280.535 151.25C276.535 152.083 272.868 153.583 269.535 155.75C268.535 159.25 267.702 162.417 267.035 165.25C266.202 168.083 265.618 170.5 265.285 172.5C264.785 174.333 263.368 175.333 261.035 175.5C258.535 175.5 256.035 175.167 253.535 174.5C250.868 173.667 248.535 172.5 246.535 171C244.535 169.5 243.785 168 244.285 166.5C245.618 161.5 247.868 154.833 251.035 146.5C254.035 138.167 257.618 129 261.785 119C265.785 109 270.285 98.6667 275.285 88C280.285 77.3333 285.368 67.1667 290.535 57.5C295.702 47.6667 300.868 38.8333 306.035 31C311.202 23.1667 316.118 17.0833 320.785 12.75C323.618 10.0833 326.285 8.99999 328.785 9.49999C331.285 9.99999 334.368 11.4167 338.035 13.75C340.202 15.0833 342.202 16.3333 344.035 17.5C345.868 18.6667 346.202 20.4167 345.035 22.75ZM311.535 92.75C308.202 95.4167 304.702 98.6667 301.035 102.5C297.368 106.333 293.868 110.333 290.535 114.5C287.368 118.5 284.535 122.417 282.035 126.25C279.535 129.917 277.702 133 276.535 135.5C279.702 132.5 283.118 128.917 286.785 124.75C290.452 120.583 293.952 116.417 297.285 112.25C300.618 108.083 303.535 104.25 306.035 100.75C308.702 97.0833 310.535 94.4167 311.535 92.75ZM415.23 97.5C415.897 96.8333 416.73 96.5833 417.73 96.75C418.897 96.9167 419.98 97.3333 420.98 98C421.98 98.6667 422.73 99.5833 423.23 100.75C423.73 101.75 423.647 102.833 422.98 104C420.814 110.5 417.73 117 413.73 123.5C409.897 129.833 405.48 135.833 400.48 141.5C395.48 147.167 390.23 152.333 384.73 157C379.23 161.667 373.814 165.5 368.48 168.5C365.98 169.833 363.314 170.333 360.48 170C357.647 169.667 354.814 168.917 351.98 167.75C349.147 166.417 346.564 164.917 344.23 163.25C341.897 161.583 339.98 160 338.48 158.5C335.314 155.167 333.564 150.75 333.23 145.25C332.897 139.583 333.564 133.5 335.23 127C336.73 120.5 339.064 113.75 342.23 106.75C345.397 99.75 348.897 93.1667 352.73 87C356.73 80.8333 360.897 75.4167 365.23 70.75C369.564 66.0833 373.647 62.6667 377.48 60.5C379.814 59.3333 381.98 58.75 383.98 58.75C385.98 58.5833 388.064 58.9167 390.23 59.75C392.397 60.4167 394.564 61.5 396.73 63C399.064 64.3333 401.647 65.8333 404.48 67.5C408.48 70 410.314 73.1667 409.98 77C409.98 78.8333 409.23 82.0833 407.73 86.75C406.397 91.4167 404.397 96.3333 401.73 101.5C399.23 106.5 396.064 111.25 392.23 115.75C388.564 120.083 384.397 123 379.73 124.5C376.397 125.333 373.48 125.583 370.98 125.25C368.48 124.917 365.73 124.083 362.73 122.75C361.897 124.417 360.98 126.917 359.98 130.25C358.98 133.417 358.23 136.667 357.73 140C357.23 143.333 357.064 146.333 357.23 149C357.397 151.5 358.397 152.917 360.23 153.25C362.897 153.75 366.647 152.333 371.48 149C376.48 145.667 381.647 141.333 386.98 136C392.314 130.5 397.564 124.333 402.73 117.5C407.897 110.667 412.064 104 415.23 97.5ZM390.23 79C388.564 80.1667 386.397 82.4167 383.73 85.75C381.23 88.9167 378.73 92.3333 376.23 96C373.897 99.6667 371.814 103.083 369.98 106.25C368.314 109.417 367.48 111.417 367.48 112.25C370.48 112.75 373.23 111.833 375.73 109.5C378.397 107.167 380.73 104.25 382.73 100.75C384.897 97.0833 386.564 93.25 387.73 89.25C389.064 85.25 389.897 81.8333 390.23 79Z" fill="white"/>
</svg>
